<?xml version="1.0" standalone="no"?>
<!DOCTYPE svg PUBLIC "-//W3C//DTD SVG 20010904//EN"
 "http://www.w3.org/TR/2001/REC-SVG-20010904/DTD/svg10.dtd">
<svg version="1.0" xmlns="http://www.w3.org/2000/svg"
 width="1563.000000pt" height="1563.000000pt" viewBox="0 0 1563.000000 1563.000000"
 preserveAspectRatio="xMidYMid meet">
<metadata>
Created by potrace 1.14, written by Peter Selinger 2001-2017
</metadata>
<g transform="translate(0.000000,1563.000000) scale(0.100000,-0.100000)"
fill="#000000" stroke="none">
<path d="M0 7815 l0 -7815 7815 0 7815 0 0 7815 0 7815 -7815 0 -7815 0 0
-7815z m6598 5505 c174 -19 360 -73 511 -149 169 -86 375 -259 492 -413 l59
-79 0 -4876 0 -4875 -37 -35 c-21 -19 -78 -65 -128 -102 -288 -218 -574 -363
-858 -435 -162 -42 -274 -56 -437 -56 -297 0 -548 63 -843 212 -201 102 -360
211 -613 421 l-34 29 -117 -18 c-160 -25 -495 -25 -638 0 -397 67 -726 230
-994 490 -172 167 -279 317 -381 528 -92 193 -142 367 -170 588 -15 122 -12
362 5 488 16 112 62 313 90 391 18 53 12 61 -52 61 -51 0 -102 38 -222 166
-248 265 -390 548 -432 862 -14 106 -7 306 16 421 46 234 172 494 342 702 71
88 251 262 334 322 l66 49 -34 86 c-215 549 -270 1033 -157 1394 134 428 506
723 1103 874 74 18 136 35 138 38 2 2 -2 35 -9 72 -8 44 -13 148 -13 284 1
183 4 229 23 313 76 342 236 616 502 860 241 222 578 377 816 377 48 0 54 2
58 23 2 12 9 51 16 87 26 145 123 310 262 448 325 324 854 503 1336 452z
m2760 0 c283 -30 564 -129 793 -281 128 -85 308 -266 370 -374 58 -100 98
-211 106 -292 l6 -63 61 0 c87 0 228 -32 337 -75 358 -143 676 -438 849 -789
66 -135 100 -231 132 -380 19 -85 22 -134 23 -306 0 -131 -5 -231 -14 -278 -7
-40 -11 -75 -8 -78 2 -2 64 -20 138 -38 692 -176 1073 -537 1148 -1089 25
-184 9 -434 -44 -672 -25 -111 -124 -422 -173 -542 l-21 -52 72 -52 c101 -73
319 -296 400 -409 79 -111 195 -340 231 -456 136 -440 54 -884 -234 -1269 -76
-101 -190 -226 -262 -286 -50 -41 -66 -49 -101 -49 -70 0 -71 -4 -37 -115 116
-376 119 -786 10 -1155 -167 -560 -607 -1014 -1160 -1197 -302 -101 -624 -126
-959 -77 l-112 16 -29 -23 c-15 -13 -77 -64 -137 -112 -308 -251 -659 -427
-988 -497 -145 -31 -421 -38 -573 -16 -357 53 -702 208 -1057 477 -49 37 -107
83 -127 102 l-38 35 0 4878 0 4878 55 72 c78 102 246 260 346 326 293 194 637
276 997 238z"/>
<path d="M6311 13209 c-123 -9 -270 -39 -396 -81 -119 -39 -285 -118 -285
-134 0 -7 24 -89 54 -181 129 -399 316 -985 316 -992 0 -4 -24 -14 -54 -23
l-53 -15 -169 529 c-146 458 -184 564 -184 518 0 -8 -659 -1779 -665 -1788 -2
-2 -96 37 -103 43 -2 2 144 396 324 877 179 480 329 882 332 893 3 13 -20 -4
-63 -45 -173 -168 -265 -348 -265 -522 0 -55 -4 -72 -20 -88 -23 -23 -18 -23
-94 -10 -190 31 -517 -100 -758 -305 l-36 -30 169 -385 c93 -212 169 -389 169
-395 -1 -11 -90 -68 -97 -61 -4 4 -306 697 -322 740 -6 16 -17 8 -70 -55 -303
-359 -409 -790 -314 -1277 15 -80 15 -84 -3 -102 -12 -12 -57 -27 -119 -40
-646 -137 -1031 -434 -1145 -881 -25 -97 -25 -109 0 -109 12 0 190 -153 450
-387 237 -214 436 -388 442 -388 6 0 81 122 168 270 86 149 329 567 540 930
211 363 384 661 386 663 1 2 25 -8 53 -23 51 -25 51 -26 37 -53 -8 -15 -258
-443 -555 -952 l-540 -925 32 -29 c18 -16 54 -49 80 -72 l48 -43 -21 -23 c-12
-13 -29 -33 -37 -45 l-15 -23 -73 66 -73 65 -43 -73 c-24 -40 -62 -111 -85
-158 -101 -207 -884 -1866 -884 -1875 0 -3 100 -150 222 -326 193 -278 225
-319 247 -319 40 0 474 -39 478 -43 4 -5 -13 -97 -21 -104 -3 -3 -92 2 -197
11 -106 9 -194 15 -195 13 -1 -1 125 -186 282 -412 156 -225 284 -410 284
-411 0 0 -22 -15 -49 -31 l-49 -31 -311 448 c-171 246 -318 451 -327 454 -8 3
-33 6 -53 6 -36 0 -39 -3 -54 -42 -30 -80 -68 -222 -89 -338 -26 -138 -31
-443 -10 -575 47 -288 162 -568 323 -786 60 -80 225 -259 239 -259 4 0 72 112
150 250 l142 249 36 -24 c20 -14 43 -25 50 -25 20 0 20 1 -137 -274 -78 -135
-141 -250 -141 -255 0 -12 168 -120 260 -166 335 -168 716 -223 1138 -164
l161 23 46 -40 c136 -115 261 -213 350 -273 459 -313 918 -421 1381 -325 103
21 176 44 172 54 -2 5 -172 233 -378 506 -206 274 -376 500 -377 503 -1 3 19
21 44 39 39 29 46 31 56 18 7 -9 183 -243 392 -520 216 -287 387 -505 396
-506 8 0 83 33 165 74 156 78 317 180 459 291 l85 66 0 1165 c0 640 -1 1164
-2 1164 -76 5 -821 80 -824 83 -2 2 1 27 8 56 9 42 15 51 32 50 12 0 193 -17
404 -37 l382 -38 0 445 0 444 -25 -23 -24 -23 -740 45 c-454 27 -745 48 -752
55 -21 21 -109 278 -109 319 0 65 -36 167 -80 225 -21 29 -42 66 -46 83 -6 26
-8 28 -19 13 -11 -16 -16 -15 -62 11 l-50 27 28 75 29 76 -83 226 -82 227
-363 420 c-200 232 -369 421 -376 421 -7 0 -20 -8 -30 -18 -24 -27 -198 -451
-192 -468 3 -7 175 -230 382 -494 207 -265 373 -485 368 -489 -5 -4 -26 -19
-46 -34 l-37 -28 -79 100 c-372 470 -709 905 -716 925 -7 18 -3 38 14 78 67
155 128 308 122 305 -4 -2 -82 -48 -174 -101 -91 -53 -170 -96 -175 -96 -17 1
-65 82 -55 92 6 6 117 72 248 148 l238 137 127 308 c71 169 130 309 132 311 1
2 26 -8 54 -22 l50 -25 -102 -244 c-101 -242 -102 -245 -81 -258 12 -8 194
-215 406 -461 l385 -446 61 -165 c33 -90 62 -166 65 -169 2 -2 92 234 200 526
l197 530 -311 321 c-170 177 -338 351 -373 387 l-63 65 38 44 37 43 387 -400
388 -400 585 -377 c322 -207 587 -375 589 -373 2 2 -170 308 -381 682 -212
373 -384 679 -382 680 2 1 23 15 48 33 l45 31 390 -690 390 -689 3 762 c1 419
1 764 -1 766 -4 3 -620 73 -649 73 -14 0 -17 10 -17 60 l1 61 31 -6 c64 -10
428 -46 437 -43 9 3 -88 67 -720 476 -173 112 -320 209 -327 216 -7 6 -53 202
-103 436 -50 234 -93 432 -96 441 -3 13 5 18 38 25 24 4 50 8 58 8 11 1 35
-94 105 -417 l91 -419 575 -372 574 -373 3 618 c1 341 1 897 0 1237 l-3 619
-550 -209 c-302 -114 -552 -208 -556 -208 -5 0 -51 102 -46 105 2 1 1100 416
1145 433 9 3 12 71 12 294 l0 291 -57 69 c-282 345 -705 520 -1172 487z m-607
-1966 c15 -25 23 -50 19 -54 -10 -10 -636 -377 -655 -384 -9 -4 -19 11 -31 46
-10 28 -16 53 -13 56 8 8 640 381 648 382 3 1 18 -20 32 -46z m-750 -1127 c53
-121 97 -226 98 -234 2 -8 -16 -21 -46 -33 -28 -10 -51 -17 -53 -15 -4 4 -198
445 -205 466 -3 11 9 19 46 31 28 9 54 13 58 10 3 -3 49 -105 102 -225z m1661
-419 c220 -112 212 -417 -14 -520 -66 -31 -179 -30 -241 2 -100 51 -159 135
-168 237 -11 137 76 258 218 305 47 16 152 4 205 -24z m-740 -128 c127 -6 231
-12 232 -13 1 0 -2 -26 -5 -56 l-7 -55 -80 3 c-44 2 -152 7 -240 12 -88 6
-179 10 -201 10 l-42 0 -7 46 c-3 26 -9 53 -12 61 -5 13 4 14 63 9 38 -3 173
-11 299 -17z m-1909 -1310 c155 -58 231 -237 165 -386 -61 -137 -231 -207
-371 -154 -219 83 -262 345 -81 497 74 62 189 79 287 43z m22 -681 c43 -170
212 -899 214 -919 1 -18 -247 -680 -336 -896 -3 -5 -106 33 -106 40 0 4 72
193 161 420 88 226 160 423 160 437 0 14 -48 226 -106 473 -58 246 -105 451
-105 456 0 4 21 12 48 18 26 6 50 11 53 12 4 0 11 -18 17 -41z m1760 -1059
c-29 -52 -68 -85 -137 -117 -45 -21 -64 -24 -125 -20 -40 3 -81 10 -91 16 -17
10 -14 10 15 4 137 -28 282 28 336 131 8 15 17 27 20 27 3 0 -5 -19 -18 -41z
m-544 -103 l36 -44 -583 -373 c-320 -204 -591 -378 -603 -386 -20 -12 -23 -10
-50 29 -16 24 -29 46 -29 50 0 5 1183 768 1191 768 1 0 18 -20 38 -44z m763
-297 l182 -271 -46 -35 c-25 -19 -46 -33 -48 -31 -1 2 -84 124 -184 272 -149
221 -179 271 -166 278 8 5 27 20 43 33 15 13 29 25 32 25 3 0 87 -122 187
-271z m-2183 -436 c77 -27 159 -113 181 -188 41 -141 -22 -283 -154 -347 -36
-18 -62 -22 -121 -22 -190 3 -325 126 -323 293 2 214 201 340 417 264z m2807
-311 c-28 -54 -102 -118 -163 -138 -106 -35 -243 3 -307 85 -47 61 -47 68 2
19 117 -117 304 -117 420 -1 26 25 49 55 53 65 3 11 8 17 11 15 2 -3 -5 -23
-16 -45z m-2086 -497 c242 -187 558 -432 702 -543 l262 -203 -32 -44 c-18 -24
-34 -44 -37 -44 -3 -1 -111 81 -240 181 -129 100 -444 344 -700 542 -256 197
-469 363 -474 367 -12 10 54 100 68 92 6 -4 209 -160 451 -348z m1734 254 c28
-8 40 -17 37 -26 -3 -7 -73 -219 -156 -471 l-151 -458 -53 26 c-30 13 -53 27
-51 30 1 3 66 200 144 439 170 517 158 484 175 478 8 -3 33 -11 55 -18z
m-2514 -594 c103 -43 165 -134 173 -251 4 -61 1 -80 -20 -126 -33 -71 -75
-118 -140 -154 -48 -26 -62 -29 -148 -29 -78 0 -102 4 -135 22 -56 29 -118 99
-140 156 -26 68 -17 179 18 240 77 131 260 197 392 142z m1616 -568 c25 -6 26
-9 21 -59 -2 -29 -6 -54 -7 -56 -2 -2 -312 65 -689 149 l-686 152 5 36 c4 20
8 45 10 57 5 21 24 17 662 -126 362 -80 670 -150 684 -153z m659 -244 c-51
-103 -136 -155 -255 -155 -96 0 -173 37 -227 108 -21 29 -21 29 13 -3 80 -75
221 -100 320 -56 89 39 166 141 171 223 1 31 2 30 5 -9 3 -34 -3 -58 -27 -108z"/>
<path d="M2420 9073 c1 -265 75 -590 216 -941 31 -78 53 -146 50 -157 -3 -11
-46 -49 -96 -84 -183 -129 -368 -329 -484 -524 -147 -245 -221 -547 -196 -794
33 -326 177 -609 447 -879 l94 -94 64 0 c35 0 67 5 70 10 3 6 15 10 26 10 10
0 19 3 19 6 0 4 -86 130 -191 281 -105 151 -193 282 -196 291 -5 22 916 1971
992 2099 39 65 55 100 49 109 -10 14 -835 758 -853 769 -8 4 -11 -28 -11 -102z"/>
<path d="M6030 7771 c-117 -317 -213 -580 -213 -586 0 -11 260 -726 265 -729
2 -1 298 -19 658 -39 770 -44 756 -43 781 -70 19 -21 19 -13 19 574 l0 595
-607 390 c-334 214 -626 401 -649 415 l-41 26 -213 -576z"/>
<path d="M9080 13210 c-379 -29 -720 -208 -952 -498 l-58 -73 0 -279 c0 -256
1 -280 18 -289 9 -5 258 -100 552 -211 294 -111 549 -208 567 -215 l32 -14
-22 -50 c-11 -28 -23 -51 -26 -51 -4 0 -253 94 -556 208 -302 115 -553 207
-557 205 -8 -4 -11 -2473 -3 -2473 2 0 190 120 417 268 227 147 486 315 576
372 145 94 163 109 171 140 5 19 46 208 91 420 46 212 83 386 84 387 2 2 28
-3 59 -9 44 -9 56 -16 52 -28 -2 -8 -45 -203 -95 -433 -49 -230 -94 -425 -98
-433 -6 -11 -900 -599 -1031 -677 -19 -12 -29 -23 -22 -25 10 -3 358 31 436
43 l30 5 0 -60 c0 -47 -3 -60 -15 -60 -37 0 -642 -70 -651 -75 -11 -7 -13
-1525 -1 -1525 4 0 178 302 387 671 209 369 385 679 390 688 9 15 15 14 57
-15 l47 -32 -268 -473 c-147 -261 -320 -566 -384 -679 -64 -112 -115 -206
-113 -208 2 -2 267 166 589 374 l585 377 388 400 388 400 37 -44 37 -44 -91
-95 c-50 -52 -219 -226 -374 -386 l-283 -292 197 -531 c120 -324 200 -526 205
-518 4 8 33 84 64 170 l56 156 369 428 c204 235 386 443 406 462 l36 34 -56
136 c-30 75 -76 184 -100 243 l-45 106 51 26 c29 14 53 22 55 18 2 -4 60 -144
130 -311 l127 -304 240 -138 c131 -76 242 -142 246 -146 9 -9 -41 -92 -56 -92
-5 -1 -86 44 -180 98 -93 55 -171 98 -172 97 -1 -1 31 -82 72 -180 41 -97 75
-183 75 -191 0 -12 -748 -977 -788 -1017 -16 -15 -20 -14 -63 16 l-45 32 383
489 c211 269 383 492 383 497 0 4 -41 107 -92 229 -105 253 -120 272 -168 223
-16 -16 -181 -206 -368 -423 l-340 -394 -82 -226 -81 -227 25 -68 c14 -38 26
-72 26 -76 0 -4 -22 -19 -49 -34 -45 -23 -50 -24 -56 -8 -5 13 -11 8 -23 -23
-10 -23 -29 -57 -44 -76 -43 -56 -69 -124 -78 -207 -5 -53 -23 -118 -57 -207
-47 -127 -49 -130 -83 -137 -29 -6 -1394 -89 -1453 -88 -9 0 -25 9 -34 20 -10
11 -21 20 -25 20 -8 0 -12 -873 -4 -881 3 -3 177 12 388 33 211 20 393 37 404
37 18 1 23 -8 32 -51 5 -29 9 -54 7 -56 -3 -3 -795 -81 -827 -82 -5 0 -8 -522
-8 -1160 l0 -1160 82 -66 c140 -110 316 -223 472 -300 82 -41 157 -74 165 -74
9 1 182 222 396 506 209 278 385 512 392 521 10 13 17 11 52 -18 23 -18 41
-36 41 -41 0 -5 -170 -234 -377 -509 -289 -383 -374 -502 -363 -509 18 -11
153 -44 250 -61 115 -21 384 -18 505 5 376 70 737 259 1088 568 95 84 101 86
195 68 185 -35 475 -42 649 -16 200 30 389 88 553 171 82 41 260 155 260 166
0 3 -65 121 -145 260 -80 140 -145 257 -145 262 0 4 6 7 13 7 7 0 28 11 48 24
l36 24 142 -249 c78 -137 146 -249 151 -249 16 0 187 190 253 281 81 113 195
339 237 469 120 375 117 761 -10 1153 l-31 97 -49 0 c-41 0 -52 -4 -72 -29
-12 -15 -155 -219 -317 -453 l-295 -425 -48 30 c-26 17 -48 31 -48 33 0 1 128
186 284 411 157 224 283 409 282 410 -2 2 -79 -4 -172 -12 -250 -22 -230 -25
-237 38 -2 28 -4 53 -2 55 1 2 108 12 236 23 129 10 242 20 251 22 13 2 458
625 458 642 0 16 -912 1929 -957 2008 l-56 98 -31 -28 c-17 -15 -49 -44 -71
-65 l-40 -37 -39 45 -39 45 58 52 c32 28 67 58 78 68 18 14 19 21 10 40 -5 13
-249 434 -541 935 -291 502 -535 921 -541 932 -10 18 -6 23 36 46 28 16 50 23
56 17 5 -5 251 -424 546 -932 295 -508 542 -924 548 -924 6 0 204 174 441 388
285 256 438 387 452 387 20 0 21 4 15 43 -42 254 -212 507 -450 667 -166 112
-429 217 -687 274 -65 15 -125 29 -133 32 -26 10 -27 45 -6 159 54 300 30 565
-75 827 -61 155 -160 313 -270 436 l-39 44 -164 -381 c-91 -210 -165 -381
-167 -381 -1 0 -93 49 -101 55 -2 1 74 176 167 389 94 214 170 393 170 398 0
15 -48 54 -159 129 -130 88 -196 121 -326 165 -126 42 -226 56 -307 43 -50 -8
-65 -7 -84 6 -21 14 -24 23 -24 83 -1 179 -89 360 -259 526 -33 33 -63 57 -66
54 -3 -3 143 -403 325 -888 182 -486 329 -884 328 -885 -8 -7 -102 -45 -104
-42 -2 1 -39 99 -82 217 -272 735 -585 1566 -590 1572 -4 4 -83 -227 -175
-515 -93 -287 -170 -523 -172 -525 -2 -3 -28 2 -58 9 l-53 14 188 585 c103
322 188 590 188 596 0 6 -44 31 -97 57 -175 81 -387 140 -548 152 -44 3 -100
7 -125 9 -25 2 -88 0 -140 -4z m1193 -2111 c171 -100 316 -186 320 -190 9 -7
-23 -109 -34 -109 -7 0 -650 378 -661 388 -12 11 35 102 50 97 7 -3 153 -86
325 -186z m-493 126 c-13 -14 -51 -39 -84 -55 -84 -42 -168 -42 -253 0 -33 17
-68 40 -79 52 -12 13 -1 9 32 -14 67 -45 129 -62 204 -55 60 5 144 42 176 78
10 11 19 19 22 19 3 0 -5 -11 -18 -25z m1193 -242 c-13 -2 -35 -2 -50 0 -16 2
-5 4 22 4 28 0 40 -2 28 -4z m-103 -688 c-13 -34 -201 -459 -203 -462 -2 -1
-25 6 -53 16 -33 13 -48 24 -46 35 2 14 185 437 197 456 2 4 29 0 59 -9 48
-14 53 -18 46 -36z m-392 -532 c-10 -2 -28 -2 -40 0 -13 2 -5 4 17 4 22 1 32
-1 23 -4z m55 0 c-7 -2 -19 -2 -25 0 -7 3 -2 5 12 5 14 0 19 -2 13 -5z m-194
-42 c-25 -15 -60 -46 -78 -67 -18 -21 -28 -30 -23 -19 18 35 112 115 136 115
6 0 -10 -13 -35 -29z m-1073 -26 c92 -45 164 -160 164 -260 0 -106 -85 -227
-186 -264 -144 -55 -304 6 -376 141 -33 62 -33 185 0 248 42 81 113 139 197
161 53 14 143 3 201 -26z m831 -165 l-10 -60 -51 -1 c-28 0 -154 -6 -281 -13
-126 -7 -230 -12 -231 -12 -1 1 -4 27 -8 59 l-6 57 52 1 c29 0 150 7 268 13
118 7 229 14 246 14 l31 2 -10 -60z m110 8 c-3 -8 -6 -5 -6 6 -1 11 2 17 5 13
3 -3 4 -12 1 -19z m1621 -1260 c62 -15 130 -60 168 -111 100 -134 65 -317 -79
-414 -117 -79 -271 -61 -368 44 -50 54 -65 81 -79 146 -32 141 63 294 207 333
61 16 93 17 151 2z m-78 -688 c0 -4 -49 -216 -110 -472 l-110 -465 165 -422
c91 -232 165 -425 165 -429 0 -6 -102 -43 -106 -39 -3 3 -315 809 -330 849
-12 34 -6 66 97 505 60 257 112 475 114 484 5 13 13 14 60 6 30 -6 55 -13 55
-17z m-1673 -646 c-3 -3 -12 -4 -19 -1 -8 3 -5 6 6 6 11 1 17 -2 13 -5z m-137
-57 c0 -2 -12 -14 -27 -28 l-28 -24 24 28 c23 25 31 32 31 24z m1112 -809
c320 -205 585 -376 591 -379 5 -4 -7 -27 -26 -52 l-35 -45 -328 210 c-181 115
-451 289 -601 385 l-272 174 32 44 c18 24 38 42 45 40 7 -3 274 -172 594 -377z
m-1168 278 l45 -34 -175 -258 c-97 -143 -179 -265 -183 -273 -7 -11 -18 -7
-52 20 -24 19 -45 35 -47 35 -4 2 360 544 365 544 2 0 23 -15 47 -34z m2114
-661 c123 -37 212 -157 212 -285 0 -117 -68 -220 -177 -267 -63 -27 -166 -22
-241 12 -201 91 -244 330 -86 474 84 77 181 99 292 66z m-2848 -441 c0 -2 -9
0 -20 6 -11 6 -20 13 -20 16 0 2 9 0 20 -6 11 -6 20 -13 20 -16z m45 -14 c13
-6 15 -9 5 -9 -8 0 -22 4 -30 9 -18 12 -2 12 25 0z m182 -6 c-3 -3 -12 -4 -19
-1 -8 3 -5 6 6 6 11 1 17 -2 13 -5z m-64 -11 c-18 -2 -48 -2 -65 0 -18 2 -4 4
32 4 36 0 50 -2 33 -4z m2301 -46 l28 -38 -28 -22 c-173 -136 -1390 -1077
-1394 -1076 -3 0 -20 20 -38 44 l-32 44 172 134 c953 738 1252 967 1258 960 3
-4 19 -25 34 -46z m-2009 -493 l151 -460 -53 -25 -53 -25 -151 459 c-83 253
-153 465 -155 472 -4 9 11 18 43 28 26 8 52 14 57 13 5 -1 78 -209 161 -462z
m2491 -141 c74 -25 157 -113 179 -188 41 -141 -24 -289 -154 -349 -71 -32
-179 -29 -253 7 -116 57 -186 172 -175 287 9 103 64 182 159 229 50 25 74 31
128 31 36 0 89 -8 116 -17z m-458 -388 c-6 -5 -1370 -307 -1373 -303 -2 2 -5
27 -6 57 l-4 54 680 152 680 151 13 -54 c7 -30 11 -56 10 -57z m-1516 -447
c-77 -124 -237 -176 -365 -120 -26 11 -47 23 -47 27 0 3 15 -2 32 -11 42 -22
151 -30 204 -15 59 16 129 66 161 116 15 23 30 41 32 39 2 -1 -6 -18 -17 -36z"/>
<path d="M12760 8794 c-234 -212 -426 -389 -428 -394 -2 -5 24 -55 56 -112 52
-88 904 -1875 968 -2027 12 -30 19 -61 16 -70 -3 -9 -90 -138 -194 -287 -103
-149 -188 -274 -188 -278 0 -3 9 -6 19 -6 11 0 23 -4 26 -10 3 -5 34 -10 69
-10 l62 0 110 113 c220 224 326 401 400 670 35 126 44 349 20 490 -68 402
-327 787 -699 1041 -32 22 -60 50 -63 62 -4 15 10 61 36 126 95 229 164 464
200 675 23 129 39 403 24 402 -5 0 -200 -174 -434 -385z"/>
<path d="M8715 7925 l-640 -412 -3 -592 c-1 -325 0 -591 3 -591 3 0 13 8 24
19 24 24 22 24 776 67 363 21 661 39 663 40 1 1 62 165 135 366 l133 364 -126
340 c-70 186 -166 446 -214 577 -49 130 -93 237 -100 236 -6 -1 -299 -187
-651 -414z"/>
</g>
</svg>
