<?xml version="1.0" standalone="no"?>
<!DOCTYPE svg PUBLIC "-//W3C//DTD SVG 1.1//EN" "http://www.w3.org/Graphics/SVG/1.1/DTD/svg11.dtd">
<svg xmlns="http://www.w3.org/2000/svg" viewBox="571.84 360.952 220.32 62.097" width="220.32000732421875" height="62.09700012207031">
  <defs>
    <clipPath id="64fc79548f">
      <path d="M 205.355469 145.84375 L 273.605469 145.84375 L 273.605469 208.09375 L 205.355469 208.09375 Z M 205.355469 145.84375 " clip-rule="nonzero"/>
    </clipPath>
  </defs>
  <g fill="#ffffff" fill-opacity="1" transform="matrix(1, 0, 0, 1, 493.706696, 215.107788)">
    <g transform="translate(75.262064, 203.7686)">
      <g>
        <path d="M 2.871094 0 L 2.871094 -52.753906 L 9.691406 -52.753906 C 14.285156 -52.753906 17.871094 -51.894531 20.242188 -49.667969 C 22.609375 -47.441406 23.828125 -44 23.828125 -38.757812 C 23.828125 -36.246094 23.613281 -34.378906 22.824219 -32.65625 C 22.035156 -30.933594 20.816406 -29.5 19.019531 -27.847656 C 20.957031 -26.773438 22.394531 -24.761719 23.542969 -21.390625 C 24.117188 -19.738281 24.402344 -17.585938 24.402344 -14.929688 C 24.402344 -10.980469 23.6875 -7.464844 21.890625 -4.738281 C 20.097656 -2.007812 17.011719 -0.214844 12.417969 0 Z M 10.621094 -31.007812 C 11.269531 -31.007812 12.777344 -30.933594 14.066406 -31.796875 C 15.359375 -32.65625 16.363281 -34.378906 16.363281 -38.039062 C 16.363281 -41.703125 15.359375 -43.425781 14.066406 -44.285156 C 12.777344 -45.144531 11.269531 -45.074219 10.621094 -45.074219 Z M 10.621094 -7.679688 C 11.269531 -7.679688 12.777344 -7.535156 14.066406 -8.46875 C 15.359375 -9.402344 16.363281 -11.484375 16.363281 -15.789062 C 16.363281 -20.097656 15.359375 -22.179688 14.066406 -23.113281 C 12.777344 -24.042969 11.269531 -23.902344 10.621094 -23.902344 Z M 10.621094 -7.679688 " style="fill: rgb(160, 102, 203);"/>
      </g>
    </g>
  </g>
  <g fill="#ffffff" fill-opacity="1" transform="matrix(1, 0, 0, 1, 493.706696, 215.107788)">
    <g transform="translate(111.792489, 203.7686)">
      <g>
        <path d="M 16.722656 0 L 12.703125 -22.25 L 10.621094 -22.25 L 10.621094 0 L 2.871094 0 L 2.871094 -52.753906 L 10.621094 -52.753906 C 19.882812 -52.753906 23.828125 -47.515625 23.828125 -37.539062 C 23.828125 -32.296875 22.464844 -27.5625 19.523438 -25.550781 L 24.476562 0 Z M 10.621094 -29.429688 C 11.699219 -29.429688 13.136719 -29.570312 14.285156 -30.574219 C 15.429688 -31.582031 16.363281 -33.519531 16.363281 -37.25 C 16.363281 -40.984375 15.429688 -42.992188 14.285156 -44 C 13.136719 -45.003906 11.699219 -45.074219 10.621094 -45.074219 Z M 10.621094 -29.429688 " style="fill: rgb(160, 102, 203);"/>
      </g>
    </g>
  </g>
  <g fill="#ffffff" fill-opacity="1" transform="matrix(1, 0, 0, 1, 493.706696, 215.107788)">
    <g transform="translate(148.107617, 203.7686)">
      <g>
        <path d="M 2.871094 -52.753906 L 10.621094 -52.753906 L 10.621094 0 L 2.871094 0 Z M 2.871094 -52.753906 " style="fill: rgb(160, 102, 203);"/>
      </g>
    </g>
  </g>
  <g fill="#ffffff" fill-opacity="1" transform="matrix(1, 0, 0, 1, 493.706696, 215.107788)">
    <g transform="translate(172.007296, 203.7686)">
      <g>
        <path d="M 11.054688 -27.488281 L 10.40625 -29.929688 L 9.976562 -29.929688 L 9.976562 0 L 2.871094 0 L 2.871094 -52.753906 L 9.761719 -52.753906 L 17.296875 -25.265625 L 17.945312 -22.824219 L 18.375 -22.824219 L 18.375 -52.753906 L 25.480469 -52.753906 L 25.480469 0 L 18.589844 0 Z M 11.054688 -27.488281 " style="fill: rgb(160, 102, 203);"/>
      </g>
    </g>
  </g>
  <g fill="#ffffff" fill-opacity="1" transform="matrix(1, 0, 0, 1, 493.706696, 215.107788)">
    <g transform="translate(275.125332, 203.7686)">
      <g>
        <path d="M 15.71875 -38.613281 C 15.71875 -40.335938 15.648438 -42.277344 15.144531 -43.78125 C 14.640625 -45.21875 13.851562 -46.222656 12.632812 -46.222656 C 10.621094 -46.152344 9.976562 -44.070312 9.976562 -40.984375 C 9.976562 -39.1875 10.765625 -37.324219 11.914062 -35.3125 C 13.0625 -33.304688 14.570312 -31.222656 16.078125 -28.996094 C 17.871094 -26.339844 19.667969 -23.613281 21.03125 -20.957031 C 22.394531 -18.300781 23.328125 -15.574219 23.328125 -12.703125 C 23.328125 -9.1875 22.753906 -5.886719 21.101562 -3.445312 C 19.449219 -1.003906 16.796875 0.574219 12.5625 0.574219 C 7.609375 0.574219 4.808594 -1.292969 3.230469 -4.164062 C 1.652344 -7.035156 1.292969 -10.839844 1.292969 -14.785156 L 8.898438 -15.503906 C 8.898438 -13.277344 8.972656 -11.054688 9.546875 -9.402344 C 10.046875 -7.679688 10.910156 -6.53125 12.5625 -6.53125 C 14.859375 -6.53125 15.71875 -8.972656 15.71875 -12.34375 C 15.71875 -14.066406 14.859375 -16.078125 13.710938 -18.160156 C 13.0625 -19.164062 12.417969 -20.242188 11.699219 -21.316406 C 10.191406 -23.46875 8.542969 -25.910156 6.820312 -28.566406 C 5.097656 -31.222656 3.804688 -33.949219 3.015625 -36.75 C 2.582031 -38.113281 2.367188 -39.546875 2.367188 -40.984375 C 2.367188 -43.855469 3.015625 -46.941406 4.664062 -49.308594 C 6.316406 -51.605469 8.828125 -53.257812 12.488281 -53.328125 C 17.152344 -53.402344 19.882812 -51.460938 21.390625 -48.664062 C 22.894531 -45.792969 23.328125 -42.277344 23.328125 -39.332031 Z M 15.71875 -38.613281 " style="fill: rgb(160, 102, 203);"/>
      </g>
    </g>
  </g>
  <g clip-path="url(#64fc79548f)" transform="matrix(1, 0, 0, 1, 493.422668, 214.958237)">
    <path d="M 215.84375 195.363281 C 216.746094 195.363281 217.464844 196.085938 217.464844 196.988281 C 217.464844 197.882812 216.746094 198.613281 215.84375 198.613281 C 214.949219 198.613281 214.230469 197.882812 214.230469 196.988281 C 214.230469 196.085938 214.949219 195.363281 215.84375 195.363281 Z M 231.1875 188.394531 C 232.085938 188.394531 232.808594 189.125 232.808594 190.019531 C 232.808594 190.914062 232.085938 191.644531 231.1875 191.644531 C 230.292969 191.644531 229.570312 190.914062 229.570312 190.019531 C 229.570312 189.125 230.292969 188.394531 231.1875 188.394531 Z M 227.847656 197.71875 C 228.738281 197.71875 229.46875 198.441406 229.46875 199.34375 C 229.46875 200.234375 228.738281 200.957031 227.847656 200.957031 C 226.953125 200.957031 226.222656 200.234375 226.222656 199.34375 C 226.222656 198.441406 226.953125 197.71875 227.847656 197.71875 Z M 216.28125 188.945312 C 217.183594 188.945312 217.902344 189.667969 217.902344 190.5625 C 217.902344 191.464844 217.183594 192.183594 216.28125 192.183594 C 215.386719 192.183594 214.667969 191.464844 214.667969 190.5625 C 214.667969 189.667969 215.386719 188.945312 216.28125 188.945312 Z M 217.234375 174.417969 C 218.128906 174.417969 218.847656 175.148438 218.847656 176.039062 C 218.847656 176.933594 218.128906 177.664062 217.234375 177.664062 C 216.332031 177.664062 215.613281 176.933594 215.613281 176.039062 C 215.613281 175.148438 216.332031 174.417969 217.234375 174.417969 Z M 226.472656 181.875 C 227.367188 181.875 228.09375 182.605469 228.09375 183.5 C 228.09375 184.390625 227.367188 185.121094 226.472656 185.121094 C 225.578125 185.121094 224.851562 184.390625 224.851562 183.5 C 224.851562 182.605469 225.578125 181.875 226.472656 181.875 Z M 232.019531 166.253906 C 232.910156 166.253906 233.640625 166.976562 233.640625 167.871094 C 233.640625 168.769531 232.910156 169.492188 232.019531 169.492188 C 231.117188 169.492188 230.394531 168.769531 230.394531 167.871094 C 230.394531 166.976562 231.117188 166.253906 232.019531 166.253906 Z M 224.410156 166.015625 C 225.3125 166.015625 226.035156 166.742188 226.035156 167.636719 C 226.035156 168.53125 225.3125 169.261719 224.410156 169.261719 C 223.519531 169.261719 222.796875 168.53125 222.796875 167.636719 C 222.796875 166.742188 223.519531 166.015625 224.410156 166.015625 Z M 221.828125 159.164062 C 222.71875 159.164062 223.449219 159.886719 223.449219 160.789062 C 223.449219 161.683594 222.71875 162.414062 221.828125 162.414062 C 220.933594 162.414062 220.203125 161.683594 220.203125 160.789062 C 220.203125 159.886719 220.933594 159.164062 221.828125 159.164062 Z M 229.546875 155.101562 C 230.449219 155.101562 231.167969 155.824219 231.167969 156.726562 C 231.167969 157.617188 230.449219 158.339844 229.546875 158.339844 C 228.652344 158.339844 227.921875 157.617188 227.921875 156.726562 C 227.921875 155.824219 228.652344 155.101562 229.546875 155.101562 Z M 223.957031 160.265625 C 223.90625 160.050781 223.820312 159.84375 223.707031 159.65625 C 224.960938 158.925781 226.222656 158.1875 227.476562 157.449219 C 227.554688 157.652344 227.65625 157.851562 227.785156 158.023438 C 226.507812 158.769531 225.234375 159.519531 223.957031 160.265625 Z M 229.820312 167.871094 C 228.746094 167.816406 227.683594 167.757812 226.609375 167.707031 C 226.609375 167.679688 226.609375 167.664062 226.609375 167.636719 C 226.609375 167.441406 226.582031 167.242188 226.523438 167.042969 C 227.65625 167.105469 228.789062 167.164062 229.921875 167.214844 C 229.855469 167.429688 229.820312 167.644531 229.820312 167.871094 Z M 229.101562 197.539062 C 228.910156 197.410156 228.714844 197.316406 228.507812 197.246094 C 229.082031 195.492188 229.65625 193.75 230.234375 191.996094 C 230.429688 192.089844 230.644531 192.160156 230.859375 192.195312 C 230.277344 193.972656 229.683594 195.75 229.101562 197.539062 Z M 227.527344 185.421875 C 227.71875 185.3125 227.898438 185.183594 228.050781 185.019531 C 228.738281 186.050781 229.433594 187.074219 230.128906 188.105469 C 229.941406 188.207031 229.761719 188.34375 229.605469 188.5 C 228.917969 187.476562 228.222656 186.445312 227.527344 185.421875 Z M 217.871094 192.082031 C 218.015625 191.925781 218.144531 191.746094 218.246094 191.550781 C 220.925781 193.628906 223.613281 195.707031 226.300781 197.777344 C 226.144531 197.933594 226.019531 198.113281 225.914062 198.304688 C 223.226562 196.230469 220.546875 194.160156 217.871094 192.082031 Z M 216.625 188.394531 C 217.242188 186.789062 217.871094 185.191406 218.496094 183.585938 L 218.503906 183.566406 L 218.496094 183.542969 C 218.085938 181.773438 217.664062 180 217.25 178.230469 C 217.464844 178.230469 217.6875 178.195312 217.894531 178.128906 C 218.316406 179.925781 218.746094 181.71875 219.167969 183.515625 C 219.183594 183.574219 219.175781 183.644531 219.148438 183.703125 C 218.515625 185.335938 217.878906 186.960938 217.242188 188.59375 C 217.046875 188.5 216.839844 188.429688 216.625 188.394531 Z M 224.601562 184.632812 C 224.710938 184.820312 224.851562 184.992188 225.019531 185.140625 C 222.746094 186.59375 220.472656 188.042969 218.195312 189.496094 C 218.09375 189.296875 217.957031 189.125 217.800781 188.980469 C 220.066406 187.527344 222.335938 186.085938 224.601562 184.632812 Z M 222.179688 162.953125 C 222.394531 162.921875 222.609375 162.851562 222.804688 162.75 C 223.203125 163.660156 223.597656 164.570312 224 165.480469 C 223.785156 165.523438 223.570312 165.601562 223.382812 165.703125 C 222.976562 164.785156 222.574219 163.875 222.179688 162.953125 Z M 217.886719 197.632812 C 217.945312 197.425781 217.980469 197.203125 217.980469 196.988281 L 225.742188 198.714844 C 225.683594 198.914062 225.65625 199.128906 225.65625 199.34375 C 225.65625 199.34375 225.65625 199.351562 225.65625 199.359375 Z M 221.132812 162.867188 C 219.054688 166.425781 216.976562 169.992188 214.898438 173.546875 L 214.875 173.609375 L 214.917969 173.652344 C 215.199219 173.902344 215.484375 174.160156 215.765625 174.40625 C 215.601562 174.554688 215.457031 174.726562 215.34375 174.914062 C 215.105469 174.691406 214.855469 174.46875 214.605469 174.253906 L 214.53125 174.183594 L 214.476562 174.269531 C 214.296875 174.589844 214.109375 174.90625 213.921875 175.234375 C 212.21875 178.824219 210.519531 182.40625 208.828125 186 L 208.804688 186.042969 L 208.835938 186.078125 C 209.652344 187.253906 210.46875 188.429688 211.292969 189.609375 L 211.308594 189.640625 L 211.355469 189.640625 C 212.296875 189.71875 213.25 189.804688 214.203125 189.882812 C 214.136719 190.097656 214.09375 190.3125 214.09375 190.535156 C 213.386719 190.476562 212.675781 190.414062 211.972656 190.355469 L 211.800781 190.335938 L 215.046875 195.003906 C 214.839844 195.089844 214.648438 195.199219 214.476562 195.339844 L 210.949219 190.269531 L 210.914062 190.261719 C 210.753906 190.25 210.589844 190.234375 210.425781 190.21875 L 210.367188 190.21875 L 210.339844 190.269531 C 209.628906 192.160156 209.421875 194.214844 209.832031 196.199219 C 210.144531 197.710938 210.804688 199.128906 211.773438 200.332031 C 212.101562 200.734375 212.445312 201.105469 212.832031 201.449219 L 212.898438 201.515625 L 214.53125 198.671875 C 214.703125 198.808594 214.898438 198.914062 215.105469 198.988281 L 213.414062 201.929688 L 213.472656 201.972656 C 214.082031 202.425781 214.746094 202.8125 215.441406 203.113281 C 217.535156 204.007812 219.84375 204.121094 222.058594 203.65625 C 222.164062 203.636719 222.265625 203.664062 222.34375 203.734375 C 224.550781 205.761719 227.238281 207.402344 230.308594 207.4375 C 231.28125 207.445312 232.234375 207.296875 233.152344 207.015625 L 233.261719 206.980469 L 233.195312 206.886719 C 231.769531 205.003906 230.351562 203.121094 228.9375 201.242188 C 229.125 201.128906 229.296875 200.992188 229.453125 200.835938 C 230.917969 202.789062 232.398438 204.746094 233.875 206.695312 L 233.90625 206.75 L 233.96875 206.722656 C 235.417969 206.148438 236.75 205.28125 237.953125 204.28125 L 237.976562 204.257812 L 237.976562 204.222656 C 237.976562 199.902344 237.976562 195.578125 237.976562 191.265625 L 237.976562 191.1875 L 237.910156 191.179688 C 236.355469 191.035156 234.808594 190.886719 233.261719 190.742188 C 233.332031 190.535156 233.375 190.320312 233.382812 190.097656 C 234.886719 190.242188 236.390625 190.378906 237.890625 190.527344 L 237.976562 190.535156 L 237.976562 190.441406 C 237.976562 188.867188 237.976562 187.304688 237.976562 185.734375 L 237.976562 185.507812 L 237.832031 185.679688 C 237.769531 185.757812 237.667969 185.800781 237.566406 185.792969 C 234.867188 185.628906 232.171875 185.472656 229.46875 185.3125 C 229.339844 185.304688 229.226562 185.21875 229.1875 185.097656 C 229.003906 184.613281 228.832031 184.132812 228.660156 183.652344 C 228.660156 183.601562 228.660156 183.550781 228.660156 183.5 C 228.660156 182.921875 228.445312 182.382812 228.042969 181.96875 C 228.019531 181.890625 227.984375 181.804688 227.957031 181.71875 L 227.878906 181.511719 L 227.804688 181.71875 C 227.792969 181.726562 227.792969 181.738281 227.792969 181.746094 C 227.613281 181.617188 227.417969 181.503906 227.210938 181.4375 C 227.3125 181.152344 227.417969 180.878906 227.519531 180.59375 L 227.535156 180.566406 L 227.519531 180.542969 C 227.21875 179.699219 226.910156 178.867188 226.609375 178.035156 L 226.601562 178.015625 L 226.59375 178.007812 C 225.234375 176.445312 223.886719 174.871094 222.53125 173.308594 L 222.488281 173.257812 L 222.429688 173.289062 C 222.359375 173.324219 222.300781 173.359375 222.238281 173.402344 L 222.214844 173.410156 L 222.207031 173.4375 C 221.855469 174.28125 221.5 175.113281 221.15625 175.945312 L 221.140625 175.988281 L 221.167969 176.03125 C 222.609375 177.863281 224.042969 179.699219 225.484375 181.539062 C 225.289062 181.632812 225.109375 181.761719 224.953125 181.917969 C 223.46875 180.027344 221.980469 178.136719 220.503906 176.246094 C 220.429688 176.152344 220.410156 176.015625 220.460938 175.902344 C 220.703125 175.328125 220.945312 174.75 221.183594 174.175781 L 221.277344 173.953125 L 221.0625 174.082031 C 220.453125 174.433594 219.84375 174.785156 219.234375 175.136719 C 219.140625 174.941406 219.019531 174.75 218.875 174.589844 C 219.808594 174.054688 220.738281 173.515625 221.671875 172.972656 L 221.691406 172.957031 L 221.707031 172.929688 C 222.1875 171.769531 222.675781 170.601562 223.160156 169.441406 C 223.339844 169.5625 223.535156 169.664062 223.75 169.734375 C 223.375 170.628906 223.003906 171.53125 222.625 172.421875 L 222.589844 172.5 L 222.667969 172.535156 C 222.730469 172.550781 222.773438 172.585938 222.804688 172.628906 L 222.816406 172.636719 C 224.257812 174.304688 225.699219 175.972656 227.132812 177.636719 C 227.167969 177.664062 227.183594 177.699219 227.195312 177.742188 C 227.398438 178.300781 227.605469 178.859375 227.8125 179.417969 L 227.878906 179.625 L 227.957031 179.417969 C 228.671875 177.5 229.382812 175.585938 230.09375 173.667969 L 230.113281 173.617188 L 230.078125 173.582031 C 228.679688 172.140625 227.289062 170.695312 225.898438 169.261719 C 226.058594 169.105469 226.199219 168.933594 226.308594 168.746094 C 227.769531 170.257812 229.226562 171.761719 230.6875 173.273438 L 230.695312 173.28125 L 230.707031 173.28125 C 232.835938 174.648438 234.964844 176.015625 237.09375 177.382812 L 237.367188 177.5625 L 237.203125 177.269531 C 235.804688 174.796875 234.398438 172.320312 232.988281 169.835938 C 233.1875 169.742188 233.367188 169.613281 233.53125 169.457031 C 234.964844 171.984375 236.390625 174.511719 237.824219 177.035156 L 237.976562 177.3125 L 237.976562 177.003906 C 237.976562 174.234375 237.976562 171.460938 237.976562 168.695312 L 237.976562 168.625 L 237.910156 168.617188 C 236.664062 168.480469 235.425781 168.339844 234.183594 168.210938 C 234.199219 168.101562 234.207031 167.980469 234.207031 167.871094 C 234.207031 167.765625 234.199219 167.65625 234.183594 167.550781 C 234.996094 167.636719 235.8125 167.730469 236.628906 167.816406 L 236.972656 167.851562 L 236.679688 167.671875 C 234.792969 166.441406 232.902344 165.214844 231.015625 163.996094 L 231.003906 163.996094 L 231.003906 163.984375 C 230.917969 163.941406 230.867188 163.867188 230.84375 163.769531 C 230.492188 162.148438 230.148438 160.523438 229.796875 158.898438 C 230.011719 158.875 230.222656 158.824219 230.421875 158.734375 C 230.765625 160.308594 231.109375 161.890625 231.453125 163.46875 L 231.460938 163.503906 L 231.488281 163.523438 C 233.605469 164.894531 235.726562 166.269531 237.847656 167.644531 L 237.976562 167.730469 L 237.976562 167.578125 C 237.976562 163.015625 237.976562 158.445312 237.976562 153.882812 L 237.976562 153.761719 L 237.867188 153.804688 C 235.796875 154.585938 233.734375 155.367188 231.667969 156.148438 C 231.605469 155.933594 231.519531 155.738281 231.402344 155.546875 C 233.574219 154.722656 235.753906 153.90625 237.925781 153.082031 L 237.976562 153.066406 L 237.976562 153.003906 C 237.976562 151.964844 237.976562 150.917969 237.976562 149.878906 L 237.976562 149.851562 L 237.960938 149.828125 C 236.773438 148.203125 235.144531 147.128906 233.160156 146.777344 C 231.699219 146.507812 230.171875 146.664062 228.765625 147.136719 C 228.234375 147.316406 227.71875 147.539062 227.226562 147.816406 L 227.167969 147.847656 L 227.183594 147.910156 C 227.898438 150.117188 228.601562 152.328125 229.3125 154.542969 C 229.101562 154.558594 228.886719 154.621094 228.679688 154.707031 C 228.0625 152.773438 227.441406 150.847656 226.824219 148.914062 L 226.746094 148.691406 L 226.671875 148.914062 C 225.425781 152.238281 224.179688 155.566406 222.933594 158.890625 C 222.746094 158.777344 222.539062 158.703125 222.324219 158.648438 C 223.554688 155.386719 224.773438 152.121094 225.992188 148.863281 L 226.101562 148.554688 L 225.863281 148.769531 C 225.691406 148.921875 225.527344 149.078125 225.375 149.25 C 224.660156 150.023438 224.128906 151.027344 224.207031 152.113281 C 224.222656 152.292969 224.085938 152.445312 223.90625 152.464844 C 223.863281 152.464844 223.8125 152.453125 223.777344 152.445312 L 223.769531 152.4375 C 223.320312 152.328125 222.796875 152.394531 222.359375 152.5 C 221.191406 152.773438 220.042969 153.460938 219.148438 154.25 L 219.097656 154.285156 L 219.125 154.34375 C 219.132812 154.363281 219.140625 154.378906 219.148438 154.40625 C 219.785156 155.847656 220.410156 157.292969 221.046875 158.734375 C 220.832031 158.824219 220.632812 158.933594 220.453125 159.078125 C 219.851562 157.679688 219.25 156.277344 218.640625 154.886719 L 218.597656 154.765625 L 218.515625 154.859375 C 217.585938 155.839844 216.910156 157.019531 216.554688 158.324219 C 216.160156 159.75 216.195312 161.226562 216.539062 162.664062 C 216.582031 162.835938 216.46875 163.015625 216.296875 163.058594 C 216.28125 163.058594 216.273438 163.066406 216.253906 163.066406 L 216.246094 163.066406 C 215.207031 163.253906 214.167969 163.539062 213.199219 163.960938 C 211.730469 164.585938 210.441406 165.550781 209.722656 167.019531 C 209.480469 167.515625 209.320312 168.050781 209.222656 168.601562 L 209.207031 168.695312 L 209.300781 168.695312 C 209.371094 168.703125 209.449219 168.726562 209.5 168.78125 C 211.105469 170.214844 212.703125 171.648438 214.296875 173.09375 L 214.375 173.160156 L 214.425781 173.078125 C 216.460938 169.570312 218.503906 166.074219 220.546875 162.566406 C 220.71875 162.695312 220.917969 162.800781 221.132812 162.867188 Z M 210.238281 189.238281 C 209.542969 188.242188 208.855469 187.253906 208.160156 186.257812 C 208.089844 186.152344 208.082031 186.023438 208.140625 185.914062 C 209.875 182.253906 211.601562 178.601562 213.335938 174.941406 C 213.34375 174.933594 213.34375 174.921875 213.355469 174.90625 C 213.570312 174.535156 213.78125 174.167969 214.007812 173.796875 L 214.039062 173.738281 L 213.988281 173.695312 C 212.410156 172.277344 210.839844 170.859375 209.257812 169.441406 L 209.128906 169.320312 L 209.121094 169.492188 C 209.078125 170.273438 209.15625 171.066406 209.292969 171.832031 C 209.550781 173.230469 210.039062 174.613281 210.597656 175.910156 C 210.667969 176.066406 210.605469 176.246094 210.460938 176.324219 L 210.460938 176.332031 C 209.660156 176.839844 208.941406 177.464844 208.324219 178.179688 C 207.273438 179.382812 206.511719 180.851562 206.28125 182.441406 C 206.023438 184.175781 206.441406 185.835938 207.386719 187.304688 C 207.902344 188.105469 208.546875 188.816406 209.25 189.445312 L 209.277344 189.460938 L 209.300781 189.46875 C 209.5 189.488281 209.695312 189.503906 209.894531 189.511719 L 209.945312 189.519531 L 209.972656 189.488281 C 210.023438 189.417969 210.101562 189.375 210.175781 189.367188 L 210.3125 189.347656 Z M 237.941406 178.703125 C 235.539062 177.167969 233.144531 175.628906 230.738281 174.089844 L 230.652344 174.03125 L 230.621094 174.125 C 229.828125 176.265625 229.03125 178.402344 228.242188 180.542969 L 228.234375 180.566406 L 228.242188 180.59375 C 228.730469 181.933594 229.21875 183.285156 229.710938 184.625 L 229.726562 184.675781 L 229.777344 184.675781 C 232.386719 184.832031 234.996094 184.984375 237.597656 185.140625 C 237.695312 185.148438 237.78125 185.191406 237.832031 185.257812 L 237.976562 185.433594 L 237.976562 185.207031 C 237.976562 183.058594 237.976562 180.921875 237.976562 178.773438 L 237.976562 178.730469 Z M 209.199219 190.113281 L 209.113281 190.105469 C 209.042969 190.097656 208.984375 190.070312 208.921875 190.027344 C 208.132812 189.332031 207.402344 188.550781 206.835938 187.65625 C 205.808594 186.050781 205.351562 184.246094 205.625 182.347656 C 205.882812 180.636719 206.699219 179.054688 207.824219 177.757812 C 208.417969 177.082031 209.09375 176.46875 209.832031 175.953125 L 209.886719 175.921875 L 209.859375 175.859375 C 209.34375 174.605469 208.898438 173.289062 208.65625 171.949219 C 208.339844 170.214844 208.347656 168.351562 209.136719 166.734375 C 209.929688 165.121094 211.320312 164.054688 212.941406 163.351562 C 213.84375 162.964844 214.796875 162.695312 215.75 162.5 L 215.828125 162.480469 L 215.808594 162.40625 C 215.535156 160.988281 215.542969 159.542969 215.929688 158.152344 C 216.375 156.492188 217.3125 155.03125 218.574219 153.882812 C 219.578125 152.96875 220.882812 152.179688 222.214844 151.863281 C 222.617188 151.769531 223.046875 151.707031 223.46875 151.734375 L 223.542969 151.742188 L 223.554688 151.664062 C 223.621094 150.574219 224.164062 149.59375 224.894531 148.804688 C 225.382812 148.261719 225.972656 147.808594 226.59375 147.429688 C 226.601562 147.417969 226.609375 147.417969 226.617188 147.410156 C 227.226562 147.042969 227.890625 146.742188 228.558594 146.519531 C 230.070312 146.011719 231.710938 145.847656 233.273438 146.132812 C 235.460938 146.527344 237.253906 147.722656 238.542969 149.523438 L 238.550781 149.523438 L 238.550781 149.535156 C 238.605469 149.59375 238.636719 149.671875 238.636719 149.75 C 238.636719 150.925781 238.636719 152.113281 238.636719 153.289062 C 238.636719 158.304688 238.636719 163.316406 238.636719 168.332031 C 238.636719 180.328125 238.636719 192.332031 238.636719 204.324219 L 238.628906 204.324219 L 238.628906 204.410156 C 238.628906 204.507812 238.585938 204.601562 238.519531 204.660156 C 237.152344 205.8125 235.617188 206.816406 233.933594 207.4375 L 233.925781 207.4375 L 233.925781 207.445312 C 233.914062 207.445312 233.898438 207.453125 233.890625 207.453125 L 233.882812 207.453125 C 232.730469 207.875 231.527344 208.097656 230.308594 208.089844 C 227.132812 208.054688 224.359375 206.429688 222.050781 204.359375 L 222.023438 204.335938 L 221.980469 204.335938 C 219.699219 204.78125 217.335938 204.636719 215.191406 203.714844 C 213.652344 203.054688 212.316406 202.039062 211.265625 200.742188 C 210.230469 199.460938 209.523438 197.941406 209.191406 196.328125 C 208.769531 194.296875 208.957031 192.203125 209.652344 190.261719 L 209.6875 190.15625 L 209.585938 190.148438 C 209.457031 190.140625 209.328125 190.121094 209.199219 190.113281 Z M 263.105469 195.363281 C 264 195.363281 264.730469 196.085938 264.730469 196.988281 C 264.730469 197.882812 264 198.613281 263.105469 198.613281 C 262.214844 198.613281 261.484375 197.882812 261.484375 196.988281 C 261.484375 196.085938 262.214844 195.363281 263.105469 195.363281 Z M 247.765625 188.394531 C 248.65625 188.394531 249.386719 189.125 249.386719 190.019531 C 249.386719 190.914062 248.65625 191.644531 247.765625 191.644531 C 246.871094 191.644531 246.140625 190.914062 246.140625 190.019531 C 246.140625 189.125 246.871094 188.394531 247.765625 188.394531 Z M 251.105469 197.71875 C 252.003906 197.71875 252.726562 198.441406 252.726562 199.34375 C 252.726562 200.234375 252.003906 200.957031 251.105469 200.957031 C 250.210938 200.957031 249.492188 200.234375 249.492188 199.34375 C 249.492188 198.441406 250.210938 197.71875 251.105469 197.71875 Z M 262.667969 188.945312 C 263.5625 188.945312 264.292969 189.667969 264.292969 190.5625 C 264.292969 191.464844 263.5625 192.183594 262.667969 192.183594 C 261.777344 192.183594 261.046875 191.464844 261.046875 190.5625 C 261.046875 189.667969 261.777344 188.945312 262.667969 188.945312 Z M 261.726562 174.417969 C 262.617188 174.417969 263.347656 175.148438 263.347656 176.039062 C 263.347656 176.933594 262.617188 177.664062 261.726562 177.664062 C 260.824219 177.664062 260.101562 176.933594 260.101562 176.039062 C 260.101562 175.148438 260.824219 174.417969 261.726562 174.417969 Z M 252.488281 181.875 C 253.378906 181.875 254.101562 182.605469 254.101562 183.5 C 254.101562 184.390625 253.378906 185.121094 252.488281 185.121094 C 251.585938 185.121094 250.863281 184.390625 250.863281 183.5 C 250.863281 182.605469 251.585938 181.875 252.488281 181.875 Z M 246.941406 166.253906 C 247.832031 166.253906 248.554688 166.976562 248.554688 167.871094 C 248.554688 168.769531 247.832031 169.492188 246.941406 169.492188 C 246.039062 169.492188 245.316406 168.769531 245.316406 167.871094 C 245.316406 166.976562 246.039062 166.253906 246.941406 166.253906 Z M 254.539062 166.015625 C 255.429688 166.015625 256.160156 166.742188 256.160156 167.636719 C 256.160156 168.53125 255.429688 169.261719 254.539062 169.261719 C 253.644531 169.261719 252.914062 168.53125 252.914062 167.636719 C 252.914062 166.742188 253.644531 166.015625 254.539062 166.015625 Z M 257.132812 159.164062 C 258.023438 159.164062 258.746094 159.886719 258.746094 160.789062 C 258.746094 161.683594 258.023438 162.414062 257.132812 162.414062 C 256.230469 162.414062 255.507812 161.683594 255.507812 160.789062 C 255.507812 159.886719 256.230469 159.164062 257.132812 159.164062 Z M 249.402344 155.101562 C 250.296875 155.101562 251.027344 155.824219 251.027344 156.726562 C 251.027344 157.617188 250.296875 158.339844 249.402344 158.339844 C 248.511719 158.339844 247.78125 157.617188 247.78125 156.726562 C 247.78125 155.824219 248.511719 155.101562 249.402344 155.101562 Z M 254.992188 160.265625 C 255.046875 160.050781 255.128906 159.84375 255.25 159.65625 C 253.988281 158.925781 252.734375 158.1875 251.472656 157.449219 C 251.40625 157.652344 251.300781 157.851562 251.171875 158.023438 C 252.445312 158.769531 253.722656 159.519531 254.992188 160.265625 Z M 249.128906 167.871094 C 250.203125 167.816406 251.277344 167.757812 252.347656 167.707031 C 252.347656 167.679688 252.347656 167.664062 252.347656 167.636719 C 252.347656 167.441406 252.375 167.242188 252.425781 167.042969 C 251.292969 167.105469 250.160156 167.164062 249.027344 167.214844 C 249.09375 167.429688 249.128906 167.644531 249.128906 167.871094 Z M 249.859375 197.539062 C 250.039062 197.410156 250.238281 197.316406 250.453125 197.246094 C 249.875 195.492188 249.292969 193.75 248.71875 191.996094 C 248.519531 192.089844 248.3125 192.160156 248.089844 192.195312 C 248.683594 193.972656 249.265625 195.75 249.859375 197.539062 Z M 251.421875 185.421875 C 251.234375 185.3125 251.050781 185.183594 250.90625 185.019531 C 250.210938 186.050781 249.515625 187.074219 248.820312 188.105469 C 249.019531 188.207031 249.191406 188.34375 249.34375 188.5 C 250.039062 187.476562 250.734375 186.445312 251.421875 185.421875 Z M 261.089844 192.082031 C 260.933594 191.925781 260.804688 191.746094 260.710938 191.550781 C 258.023438 193.628906 255.335938 195.707031 252.648438 197.777344 C 252.804688 197.933594 252.941406 198.113281 253.042969 198.304688 C 255.722656 196.230469 258.402344 194.160156 261.089844 192.082031 Z M 262.335938 188.394531 C 261.707031 186.789062 261.082031 185.191406 260.453125 183.585938 L 260.445312 183.566406 L 260.453125 183.542969 C 260.875 181.773438 261.285156 180 261.707031 178.230469 C 261.484375 178.230469 261.269531 178.195312 261.054688 178.128906 C 260.632812 179.925781 260.214844 181.71875 259.792969 183.515625 C 259.777344 183.574219 259.777344 183.644531 259.800781 183.703125 C 260.4375 185.335938 261.070312 186.960938 261.707031 188.59375 C 261.90625 188.5 262.121094 188.429688 262.335938 188.394531 Z M 254.359375 184.632812 C 254.246094 184.820312 254.101562 184.992188 253.9375 185.140625 C 256.203125 186.59375 258.480469 188.042969 260.753906 189.496094 C 260.867188 189.296875 260.996094 189.125 261.15625 188.980469 C 258.890625 187.527344 256.625 186.085938 254.359375 184.632812 Z M 256.78125 162.953125 C 256.554688 162.921875 256.351562 162.851562 256.152344 162.75 C 255.75 163.660156 255.355469 164.570312 254.960938 165.480469 C 255.175781 165.523438 255.378906 165.601562 255.578125 165.703125 C 255.972656 164.785156 256.375 163.875 256.78125 162.953125 Z M 261.070312 197.632812 C 261.003906 197.425781 260.96875 197.203125 260.96875 196.988281 L 253.207031 198.714844 C 253.269531 198.914062 253.300781 199.128906 253.300781 199.34375 C 253.300781 199.34375 253.300781 199.351562 253.300781 199.359375 Z M 257.828125 162.867188 C 259.90625 166.425781 261.972656 169.992188 264.050781 173.546875 L 264.085938 173.609375 L 264.035156 173.652344 C 263.75 173.902344 263.46875 174.160156 263.191406 174.40625 C 263.355469 174.554688 263.492188 174.726562 263.605469 174.914062 C 263.855469 174.691406 264.101562 174.46875 264.34375 174.253906 L 264.421875 174.183594 L 264.472656 174.269531 C 264.660156 174.589844 264.839844 174.90625 265.03125 175.234375 C 266.730469 178.824219 268.429688 182.40625 270.128906 186 L 270.148438 186.042969 L 270.121094 186.078125 C 269.296875 187.253906 268.480469 188.429688 267.664062 189.609375 L 267.640625 189.640625 L 267.605469 189.640625 C 266.652344 189.71875 265.699219 189.804688 264.753906 189.882812 C 264.824219 190.097656 264.859375 190.3125 264.859375 190.535156 C 265.570312 190.476562 266.273438 190.414062 266.980469 190.355469 L 267.160156 190.335938 L 263.90625 195.003906 C 264.109375 195.089844 264.300781 195.199219 264.472656 195.339844 L 268 190.269531 L 268.042969 190.261719 C 268.207031 190.25 268.359375 190.234375 268.523438 190.21875 L 268.585938 190.21875 L 268.609375 190.269531 C 269.324219 192.160156 269.539062 194.214844 269.125 196.199219 C 268.808594 197.710938 268.148438 199.128906 267.175781 200.332031 C 266.859375 200.734375 266.507812 201.105469 266.128906 201.449219 L 266.050781 201.515625 L 264.421875 198.671875 C 264.25 198.808594 264.058594 198.914062 263.855469 198.988281 L 265.535156 201.929688 L 265.484375 201.972656 C 264.875 202.425781 264.207031 202.8125 263.511719 203.113281 C 261.414062 204.007812 259.105469 204.121094 256.898438 203.65625 C 256.796875 203.636719 256.683594 203.664062 256.609375 203.734375 C 254.410156 205.761719 251.714844 207.402344 248.640625 207.4375 C 247.679688 207.445312 246.726562 207.296875 245.804688 207.015625 L 245.695312 206.980469 L 245.765625 206.886719 C 247.179688 205.003906 248.597656 203.121094 250.015625 201.242188 C 249.824219 201.128906 249.652344 200.992188 249.507812 200.835938 C 248.03125 202.789062 246.554688 204.746094 245.085938 206.695312 L 245.042969 206.75 L 244.984375 206.722656 C 243.539062 206.148438 242.203125 205.28125 241.007812 204.28125 L 240.972656 204.257812 L 240.972656 204.222656 C 240.972656 199.902344 240.972656 195.578125 240.972656 191.265625 L 240.972656 191.1875 L 241.050781 191.179688 C 242.597656 191.035156 244.140625 190.886719 245.695312 190.742188 C 245.617188 190.535156 245.582031 190.320312 245.574219 190.097656 C 244.074219 190.242188 242.570312 190.378906 241.066406 190.527344 L 240.972656 190.535156 L 240.972656 190.441406 C 240.972656 188.867188 240.972656 187.304688 240.972656 185.734375 L 240.972656 185.507812 L 241.121094 185.679688 C 241.1875 185.757812 241.28125 185.800781 241.386719 185.792969 C 244.089844 185.628906 246.785156 185.472656 249.480469 185.3125 C 249.609375 185.304688 249.722656 185.21875 249.765625 185.097656 C 249.945312 184.613281 250.117188 184.132812 250.296875 183.652344 C 250.289062 183.601562 250.289062 183.550781 250.289062 183.5 C 250.289062 182.921875 250.511719 182.382812 250.90625 181.96875 C 250.941406 181.890625 250.96875 181.804688 251 181.71875 L 251.078125 181.511719 L 251.15625 181.71875 C 251.15625 181.726562 251.15625 181.738281 251.164062 181.746094 C 251.335938 181.617188 251.535156 181.503906 251.738281 181.4375 C 251.636719 181.152344 251.535156 180.878906 251.429688 180.59375 L 251.421875 180.566406 L 251.429688 180.542969 C 251.730469 179.699219 252.039062 178.867188 252.339844 178.035156 L 252.347656 178.015625 L 252.359375 178.007812 C 253.714844 176.445312 255.070312 174.871094 256.425781 173.308594 L 256.46875 173.257812 L 256.53125 173.289062 C 256.589844 173.324219 256.652344 173.359375 256.71875 173.402344 L 256.746094 173.410156 L 256.753906 173.4375 C 257.097656 174.28125 257.449219 175.113281 257.800781 175.945312 L 257.820312 175.988281 L 257.785156 176.03125 C 256.351562 177.863281 254.90625 179.699219 253.464844 181.539062 C 253.664062 181.632812 253.84375 181.761719 254.007812 181.917969 C 255.484375 180.027344 256.96875 178.136719 258.453125 176.246094 C 258.523438 176.152344 258.539062 176.015625 258.488281 175.902344 C 258.246094 175.328125 258.007812 174.75 257.765625 174.175781 L 257.671875 173.953125 L 257.886719 174.082031 C 258.496094 174.433594 259.105469 174.785156 259.722656 175.136719 C 259.808594 174.941406 259.929688 174.75 260.078125 174.589844 C 259.148438 174.054688 258.214844 173.515625 257.285156 172.972656 L 257.261719 172.957031 L 257.25 172.929688 C 256.761719 171.769531 256.28125 170.601562 255.792969 169.441406 C 255.613281 169.5625 255.414062 169.664062 255.207031 169.734375 C 255.578125 170.628906 255.957031 171.53125 256.324219 172.421875 L 256.359375 172.5 L 256.28125 172.535156 C 256.230469 172.550781 256.179688 172.585938 256.144531 172.628906 L 256.144531 172.636719 C 254.703125 174.304688 253.257812 175.972656 251.816406 177.636719 C 251.792969 177.664062 251.773438 177.699219 251.757812 177.742188 C 251.550781 178.300781 251.351562 178.859375 251.148438 179.417969 L 251.070312 179.625 L 250.992188 179.417969 C 250.28125 177.5 249.566406 175.585938 248.855469 173.667969 L 248.839844 173.617188 L 248.878906 173.582031 C 250.269531 172.140625 251.664062 170.695312 253.0625 169.261719 C 252.898438 169.105469 252.761719 168.933594 252.648438 168.746094 C 251.183594 170.257812 249.722656 171.761719 248.261719 173.273438 L 248.253906 173.28125 L 248.246094 173.28125 C 246.117188 174.648438 243.988281 176.015625 241.867188 177.382812 L 241.582031 177.5625 L 241.746094 177.269531 C 243.15625 174.796875 244.5625 172.320312 245.960938 169.835938 C 245.765625 169.742188 245.582031 169.613281 245.429688 169.457031 C 243.996094 171.984375 242.5625 174.511719 241.128906 177.035156 L 240.972656 177.3125 L 240.972656 177.003906 C 240.972656 174.234375 240.972656 171.460938 240.972656 168.695312 L 240.972656 168.625 L 241.050781 168.617188 C 242.289062 168.480469 243.53125 168.339844 244.769531 168.210938 C 244.75 168.101562 244.742188 167.980469 244.742188 167.871094 C 244.742188 167.765625 244.75 167.65625 244.769531 167.550781 C 243.953125 167.636719 243.136719 167.730469 242.320312 167.816406 L 241.976562 167.851562 L 242.269531 167.671875 C 244.160156 166.441406 246.054688 165.214844 247.945312 163.996094 L 247.945312 163.984375 C 248.03125 163.941406 248.089844 163.867188 248.109375 163.769531 C 248.460938 162.148438 248.8125 160.523438 249.164062 158.898438 C 248.941406 158.875 248.726562 158.824219 248.527344 158.734375 C 248.183594 160.308594 247.839844 161.890625 247.507812 163.46875 L 247.5 163.503906 L 247.472656 163.523438 C 245.34375 164.894531 243.222656 166.269531 241.101562 167.644531 L 240.972656 167.730469 L 240.972656 167.578125 C 240.972656 163.015625 240.972656 158.445312 240.972656 153.882812 L 240.972656 153.761719 L 241.085938 153.804688 C 243.15625 154.585938 245.222656 155.367188 247.292969 156.148438 C 247.34375 155.933594 247.4375 155.738281 247.550781 155.546875 C 245.378906 154.722656 243.207031 153.90625 241.023438 153.082031 L 240.972656 153.066406 L 240.972656 153.003906 C 240.972656 151.964844 240.972656 150.917969 240.972656 149.878906 L 240.972656 149.851562 L 240.992188 149.828125 C 242.175781 148.203125 243.816406 147.128906 245.796875 146.777344 C 247.257812 146.507812 248.785156 146.664062 250.183594 147.136719 C 250.71875 147.316406 251.242188 147.539062 251.730469 147.816406 L 251.792969 147.847656 L 251.765625 147.910156 C 251.0625 150.117188 250.347656 152.328125 249.636719 154.542969 C 249.859375 154.558594 250.074219 154.621094 250.269531 154.707031 C 250.890625 152.773438 251.507812 150.847656 252.136719 148.914062 L 252.203125 148.691406 L 252.289062 148.914062 C 253.535156 152.238281 254.777344 155.566406 256.015625 158.890625 C 256.203125 158.777344 256.410156 158.703125 256.625 158.648438 C 255.40625 155.386719 254.1875 152.121094 252.957031 148.863281 L 252.847656 148.554688 L 253.097656 148.769531 C 253.257812 148.921875 253.429688 149.078125 253.578125 149.25 C 254.296875 150.023438 254.832031 151.027344 254.746094 152.113281 C 254.734375 152.292969 254.875 152.445312 255.046875 152.464844 C 255.097656 152.464844 255.140625 152.453125 255.183594 152.445312 L 255.183594 152.4375 L 255.191406 152.4375 C 255.628906 152.328125 256.152344 152.394531 256.589844 152.5 C 257.757812 152.773438 258.910156 153.460938 259.808594 154.25 L 259.851562 154.285156 L 259.828125 154.34375 C 259.820312 154.363281 259.808594 154.378906 259.800781 154.40625 C 259.175781 155.847656 258.539062 157.292969 257.902344 158.734375 C 258.117188 158.824219 258.324219 158.933594 258.496094 159.078125 C 259.105469 157.679688 259.707031 156.277344 260.308594 154.886719 L 260.359375 154.765625 L 260.445312 154.859375 C 261.363281 155.839844 262.042969 157.019531 262.402344 158.324219 C 262.789062 159.75 262.753906 161.226562 262.410156 162.664062 C 262.367188 162.835938 262.480469 163.015625 262.660156 163.058594 C 262.667969 163.058594 262.6875 163.066406 262.695312 163.066406 L 262.703125 163.066406 C 263.742188 163.253906 264.78125 163.539062 265.75 163.960938 C 267.21875 164.585938 268.507812 165.550781 269.226562 167.019531 C 269.46875 167.515625 269.640625 168.050781 269.734375 168.601562 L 269.753906 168.695312 L 269.65625 168.695312 C 269.578125 168.703125 269.511719 168.726562 269.453125 168.78125 C 267.855469 170.214844 266.257812 171.648438 264.652344 173.09375 L 264.582031 173.160156 L 264.53125 173.078125 C 262.488281 169.570312 260.445312 166.074219 258.410156 162.566406 C 258.230469 162.695312 258.03125 162.800781 257.828125 162.867188 Z M 268.722656 189.238281 C 269.410156 188.242188 270.105469 187.253906 270.792969 186.257812 C 270.859375 186.152344 270.867188 186.023438 270.808594 185.914062 C 269.082031 182.253906 267.347656 178.601562 265.613281 174.941406 C 265.613281 174.933594 265.605469 174.921875 265.597656 174.90625 C 265.382812 174.535156 265.167969 174.167969 264.953125 173.796875 L 264.917969 173.738281 L 264.96875 173.695312 C 266.542969 172.277344 268.121094 170.859375 269.691406 169.441406 L 269.820312 169.320312 L 269.828125 169.492188 C 269.871094 170.273438 269.792969 171.066406 269.65625 171.832031 C 269.398438 173.230469 268.917969 174.613281 268.351562 175.910156 C 268.292969 176.066406 268.351562 176.246094 268.488281 176.324219 L 268.5 176.332031 C 269.289062 176.839844 270.019531 177.464844 270.636719 178.179688 C 271.675781 179.382812 272.4375 180.851562 272.671875 182.441406 C 272.929688 184.175781 272.507812 185.835938 271.570312 187.304688 C 271.058594 188.105469 270.414062 188.816406 269.699219 189.445312 L 269.683594 189.460938 L 269.648438 189.46875 C 269.453125 189.488281 269.253906 189.503906 269.054688 189.511719 L 269.011719 189.519531 L 268.988281 189.488281 C 268.9375 189.417969 268.859375 189.375 268.773438 189.367188 L 268.644531 189.347656 Z M 241.015625 178.703125 C 243.410156 177.167969 245.816406 175.628906 248.210938 174.089844 L 248.296875 174.03125 L 248.332031 174.125 C 249.128906 176.265625 249.917969 178.402344 250.71875 180.542969 L 250.726562 180.566406 L 250.71875 180.59375 C 250.230469 181.933594 249.738281 183.285156 249.25 184.625 L 249.234375 184.675781 L 249.171875 184.675781 C 246.570312 184.832031 243.960938 184.984375 241.351562 185.140625 C 241.257812 185.148438 241.179688 185.191406 241.121094 185.257812 L 240.972656 185.433594 L 240.972656 185.207031 C 240.972656 183.058594 240.972656 180.921875 240.972656 178.773438 L 240.972656 178.730469 Z M 269.761719 190.113281 L 269.839844 190.105469 C 269.90625 190.097656 269.976562 190.070312 270.027344 190.027344 C 270.824219 189.332031 271.546875 188.550781 272.121094 187.65625 C 273.152344 186.050781 273.597656 184.246094 273.324219 182.347656 C 273.074219 180.636719 272.25 179.054688 271.125 177.757812 C 270.542969 177.082031 269.863281 176.46875 269.117188 175.953125 L 269.066406 175.921875 L 269.089844 175.859375 C 269.613281 174.605469 270.054688 173.289062 270.300781 171.949219 C 270.621094 170.214844 270.601562 168.351562 269.8125 166.734375 C 269.023438 165.121094 267.632812 164.054688 266.007812 163.351562 C 265.117188 162.964844 264.164062 162.695312 263.203125 162.5 L 263.125 162.480469 L 263.140625 162.40625 C 263.425781 160.988281 263.40625 159.542969 263.03125 158.152344 C 262.574219 156.492188 261.636719 155.03125 260.375 153.882812 C 259.378906 152.96875 258.066406 152.179688 256.746094 151.863281 C 256.339844 151.769531 255.902344 151.707031 255.492188 151.734375 L 255.40625 151.742188 L 255.40625 151.664062 C 255.335938 150.574219 254.789062 149.59375 254.066406 148.804688 C 253.570312 148.261719 252.984375 147.808594 252.359375 147.429688 C 252.347656 147.417969 252.347656 147.417969 252.339844 147.410156 L 252.332031 147.410156 C 251.722656 147.042969 251.070312 146.742188 250.390625 146.519531 C 248.890625 146.011719 247.25 145.847656 245.679688 146.132812 C 243.488281 146.527344 241.695312 147.722656 240.40625 149.523438 L 240.398438 149.535156 C 240.347656 149.59375 240.320312 149.671875 240.320312 149.75 C 240.320312 150.925781 240.320312 152.113281 240.320312 153.289062 C 240.320312 158.304688 240.320312 163.316406 240.320312 168.332031 C 240.320312 180.328125 240.320312 192.332031 240.320312 204.324219 L 240.320312 204.410156 C 240.320312 204.507812 240.363281 204.601562 240.441406 204.660156 C 241.804688 205.8125 243.34375 206.816406 245.027344 207.4375 L 245.027344 207.445312 C 245.042969 207.445312 245.050781 207.453125 245.070312 207.453125 C 246.21875 207.875 247.421875 208.097656 248.648438 208.089844 C 251.824219 208.054688 254.597656 206.429688 256.898438 204.359375 L 256.933594 204.335938 L 256.96875 204.335938 C 259.253906 204.78125 261.613281 204.636719 263.769531 203.714844 C 265.296875 203.054688 266.644531 202.039062 267.683594 200.742188 C 268.722656 199.460938 269.425781 197.941406 269.761719 196.328125 C 270.179688 194.296875 270 192.203125 269.304688 190.261719 L 269.261719 190.15625 L 269.375 190.148438 C 269.503906 190.140625 269.632812 190.121094 269.761719 190.113281 " fill-opacity="1" fill-rule="nonzero" style="fill: rgb(160, 102, 203);"/>
    <ellipse style="stroke: rgb(139, 184, 229); fill: rgb(139, 184, 229);" cx="229.545" cy="156.719" rx="1.171" ry="1.126"/>
    <ellipse style="stroke: rgb(254, 109, 115); fill: rgb(254, 109, 115);" cx="221.823" cy="160.779" rx="1.171" ry="1.126"/>
  </g>
  <ellipse style="stroke: rgb(139, 184, 229); fill: rgb(139, 184, 229);" cx="322.591" cy="220.999" rx="1.171" ry="1.126" transform="matrix(1, 0, 0, 1, 395.281281, 161.598999)"/>
  <ellipse style="stroke: rgb(255, 255, 255); fill: rgb(255, 255, 255);" cx="315.368" cy="229.414" rx="1.171" ry="1.126" transform="matrix(1, 0, 0, 1, 395.281281, 161.598999)"/>
  <ellipse style="stroke: rgb(247, 220, 111); fill: rgb(247, 220, 111);" cx="330.146" cy="221.252" rx="1.171" ry="1.126" transform="matrix(1, 0, 0, 1, 395.281281, 161.598999)"/>
  <ellipse style="stroke: rgb(247, 220, 111); fill: rgb(247, 220, 111);" cx="345.081" cy="221.268" rx="1.171" ry="1.126" transform="matrix(1, 0, 0, 1, 395.281281, 161.598999)"/>
  <ellipse style="stroke: rgb(139, 184, 229); fill: rgb(139, 184, 229);" cx="352.742" cy="221.018" rx="1.171" ry="1.126" transform="matrix(1, 0, 0, 1, 395.281281, 161.598999)"/>
  <ellipse style="stroke: rgb(255, 255, 255); fill: rgb(255, 255, 255);" cx="359.872" cy="229.357" rx="1.171" ry="1.126" transform="matrix(1, 0, 0, 1, 395.281281, 161.598999)"/>
  <ellipse style="stroke: rgb(139, 184, 229); fill: rgb(139, 184, 229);" cx="350.66" cy="236.871" rx="1.171" ry="1.126" transform="matrix(1, 0, 0, 1, 395.281281, 161.598999)"/>
  <ellipse style="stroke: rgb(139, 184, 229); fill: rgb(139, 184, 229);" cx="349.212" cy="252.63" rx="1.171" ry="1.126" transform="matrix(1, 0, 0, 1, 395.281281, 161.598999)"/>
  <ellipse style="stroke: rgb(254, 109, 115); fill: rgb(254, 109, 115);" cx="345.912" cy="243.33" rx="1.171" ry="1.126" transform="matrix(1, 0, 0, 1, 395.281281, 161.598999)"/>
  <ellipse style="stroke: rgb(255, 255, 255); fill: rgb(255, 255, 255);" cx="360.701" cy="243.862" rx="1.171" ry="1.126" transform="matrix(1, 0, 0, 1, 395.281281, 161.598999)"/>
  <ellipse style="stroke: rgb(247, 220, 111); fill: rgb(247, 220, 111);" cx="361.149" cy="250.296" rx="1.171" ry="1.126" transform="matrix(1, 0, 0, 1, 395.281281, 161.598999)"/>
  <ellipse style="stroke: rgb(254, 109, 115); fill: rgb(254, 109, 115);" cx="329.308" cy="243.208" rx="1.171" ry="1.126" transform="matrix(1, 0, 0, 1, 395.281281, 161.598999)"/>
  <ellipse style="stroke: rgb(139, 184, 229); fill: rgb(139, 184, 229);" cx="324.571" cy="236.798" rx="1.171" ry="1.126" transform="matrix(1, 0, 0, 1, 395.281281, 161.598999)"/>
  <ellipse style="stroke: rgb(255, 255, 255); fill: rgb(255, 255, 255);" cx="314.237" cy="243.874" rx="1.171" ry="1.126" transform="matrix(1, 0, 0, 1, 395.281281, 161.598999)"/>
  <ellipse style="stroke: rgb(247, 220, 111); fill: rgb(247, 220, 111);" cx="313.843" cy="250.434" rx="1.171" ry="1.126" transform="matrix(1, 0, 0, 1, 395.281281, 161.598999)"/>
  <ellipse style="stroke: rgb(139, 184, 229); fill: rgb(139, 184, 229);" cx="325.917" cy="252.544" rx="1.171" ry="1.126" transform="matrix(1, 0, 0, 1, 395.281281, 161.598999)"/>
  <ellipse style="stroke: rgb(139, 184, 229); fill: rgb(139, 184, 229);" cx="347.544" cy="210.018" rx="1.171" ry="1.126" transform="matrix(1, 0, 0, 1, 395.281281, 161.598999)"/>
  <ellipse style="stroke: rgb(254, 109, 115); fill: rgb(254, 109, 115);" cx="355.267" cy="214.176" rx="1.171" ry="1.126" transform="matrix(1, 0, 0, 1, 395.281281, 161.598999)"/>
</svg>